<svg xmlns="http://www.w3.org/2000/svg" xmlns:xlink="http://www.w3.org/1999/xlink" contentStyleType="text/css" data-diagram-type="CLASS" height="519px" preserveAspectRatio="none" style="width:899px;height:519px;background:#FFFFFF;" version="1.1" viewBox="0 0 899 519" width="899px" zoomAndPan="magnify"><title>Behavior Package Diagram</title><defs><filter height="300%" id="f1hlkpnxnwmvah" width="300%" x="-1" y="-1"><feGaussianBlur result="blurOut" stdDeviation="2"/><feColorMatrix in="blurOut" result="blurOut2" type="matrix" values="0 0 0 0 0 0 0 0 0 0 0 0 0 0 0 0 0 0 .4 0"/><feOffset dx="4" dy="4" in="blurOut2" result="blurOut3"/><feBlend in="SourceGraphic" in2="blurOut3" mode="normal"/></filter></defs><g><g class="title" data-source-line="1"><text fill="#000000" font-family="sans-serif" font-size="14" font-weight="bold" lengthAdjust="spacing" textLength="180.5303" x="352.2349" y="24.5332">Behavior Package Diagram</text></g><!--cluster behavior--><g class="cluster" data-entity="behavior" data-source-line="10" data-uid="ent0002" id="cluster_behavior"><rect fill="none" filter="url(#f1hlkpnxnwmvah)" height="462" rx="2.5" ry="2.5" style="stroke:#000000;stroke-width:1.5;" width="880" x="7" y="45.6094"/><text fill="#000000" font-family="sans-serif" font-size="14" font-weight="bold" lengthAdjust="spacing" textLength="58.3516" x="417.8242" y="62.1426">behavior</text></g><!--class Rule--><g class="entity" data-entity="Rule" data-source-line="12" data-uid="ent0003" id="entity_Rule"><rect fill="#F1F1F1" filter="url(#f1hlkpnxnwmvah)" height="93.9219" rx="2.5" ry="2.5" style="stroke:#181818;stroke-width:0.5;" width="237.7021" x="279" y="397.6094"/><ellipse cx="377.5864" cy="418.9609" fill="#ADD1B2" rx="11" ry="11" style="stroke:#181818;stroke-width:1;"/><path d="M380.3521,414.8359 Q380.5083,414.6172 380.6958,414.5078 Q380.8833,414.3984 381.1021,414.3984 Q381.4771,414.3984 381.7114,414.6641 Q381.9458,414.9141 381.9458,415.5234 L381.9458,416.9766 Q381.9458,417.5859 381.7114,417.8516 Q381.4771,418.1172 381.1021,418.1172 Q380.7583,418.1172 380.5552,417.9141 Q380.3521,417.7266 380.2427,417.2109 Q380.1958,416.8516 380.0083,416.6641 Q379.6802,416.2891 379.0708,416.0703 Q378.4614,415.8516 377.8364,415.8516 Q377.0708,415.8516 376.4302,416.1797 Q375.8052,416.5078 375.3052,417.2578 Q374.8208,418.0078 374.8208,419.0391 L374.8208,420.1328 Q374.8208,421.3672 375.7114,422.1953 Q376.6021,423.0078 378.1958,423.0078 Q379.1333,423.0078 379.7896,422.7578 Q380.1802,422.6016 380.6021,422.1641 Q380.8677,421.8984 381.0083,421.8203 Q381.1646,421.7422 381.3677,421.7422 Q381.6958,421.7422 381.9458,422.0078 Q382.2114,422.2578 382.2114,422.6016 Q382.2114,422.9453 381.8677,423.3516 Q381.3677,423.9297 380.5708,424.2578 Q379.4927,424.7109 378.1958,424.7109 Q376.6802,424.7109 375.4771,424.0859 Q374.4927,423.5859 373.8052,422.5234 Q373.1177,421.4453 373.1177,420.1641 L373.1177,419.0078 Q373.1177,417.6797 373.7271,416.5391 Q374.3521,415.3828 375.4458,414.7734 Q376.5396,414.1484 377.7739,414.1484 Q378.5083,414.1484 379.1489,414.3203 Q379.8052,414.4766 380.3521,414.8359 Z " fill="#000000"/><text fill="#000000" font-family="sans-serif" font-size="12" font-style="italic" lengthAdjust="spacing" textLength="36.0293" x="396.0864" y="415.0664">&#171;type&#187;</text><text fill="#000000" font-family="sans-serif" font-size="14" lengthAdjust="spacing" textLength="28.793" x="399.7046" y="432.2363">Rule</text><line style="stroke:#181818;stroke-width:0.5;" x1="280" x2="515.7021" y1="440.3125" y2="440.3125"/><text fill="#000000" font-family="sans-serif" font-size="14" lengthAdjust="spacing" textLength="138.8857" x="285" y="458.8457">+Kleisli[F, I, Option[A]]</text><line style="stroke:#181818;stroke-width:1;" x1="280" x2="515.7021" y1="465.9219" y2="465.9219"/><text fill="#000000" font-family="sans-serif" font-size="14" lengthAdjust="spacing" textLength="225.7021" x="285" y="484.4551">Regola parziale, pu&#242; non produrre A</text></g><!--class Behavior--><g class="entity" data-entity="Behavior" data-source-line="17" data-uid="ent0004" id="entity_Behavior"><rect fill="#F1F1F1" filter="url(#f1hlkpnxnwmvah)" height="93.9219" rx="2.5" ry="2.5" style="stroke:#181818;stroke-width:0.5;" width="193.3301" x="210.5" y="225.6094"/><ellipse cx="275.2876" cy="246.9609" fill="#ADD1B2" rx="11" ry="11" style="stroke:#181818;stroke-width:1;"/><path d="M278.0532,242.8359 Q278.2095,242.6172 278.397,242.5078 Q278.5845,242.3984 278.8032,242.3984 Q279.1782,242.3984 279.4126,242.6641 Q279.647,242.9141 279.647,243.5234 L279.647,244.9766 Q279.647,245.5859 279.4126,245.8516 Q279.1782,246.1172 278.8032,246.1172 Q278.4595,246.1172 278.2563,245.9141 Q278.0532,245.7266 277.9438,245.2109 Q277.897,244.8516 277.7095,244.6641 Q277.3813,244.2891 276.772,244.0703 Q276.1626,243.8516 275.5376,243.8516 Q274.772,243.8516 274.1313,244.1797 Q273.5063,244.5078 273.0063,245.2578 Q272.522,246.0078 272.522,247.0391 L272.522,248.1328 Q272.522,249.3672 273.4126,250.1953 Q274.3032,251.0078 275.897,251.0078 Q276.8345,251.0078 277.4907,250.7578 Q277.8813,250.6016 278.3032,250.1641 Q278.5688,249.8984 278.7095,249.8203 Q278.8657,249.7422 279.0688,249.7422 Q279.397,249.7422 279.647,250.0078 Q279.9126,250.2578 279.9126,250.6016 Q279.9126,250.9453 279.5688,251.3516 Q279.0688,251.9297 278.272,252.2578 Q277.1938,252.7109 275.897,252.7109 Q274.3813,252.7109 273.1782,252.0859 Q272.1938,251.5859 271.5063,250.5234 Q270.8188,249.4453 270.8188,248.1641 L270.8188,247.0078 Q270.8188,245.6797 271.4282,244.5391 Q272.0532,243.3828 273.147,242.7734 Q274.2407,242.1484 275.4751,242.1484 Q276.2095,242.1484 276.8501,242.3203 Q277.5063,242.4766 278.0532,242.8359 Z " fill="#000000"/><text fill="#000000" font-family="sans-serif" font-size="12" font-style="italic" lengthAdjust="spacing" textLength="36.0293" x="305.4004" y="243.0664">&#171;type&#187;</text><text fill="#000000" font-family="sans-serif" font-size="14" lengthAdjust="spacing" textLength="55.2549" x="295.7876" y="260.2363">Behavior</text><line style="stroke:#181818;stroke-width:0.5;" x1="211.5" x2="402.8301" y1="268.3125" y2="268.3125"/><text fill="#000000" font-family="sans-serif" font-size="14" lengthAdjust="spacing" textLength="89.8584" x="216.5" y="286.8457">+Kleisli[F, I, A]</text><line style="stroke:#181818;stroke-width:1;" x1="211.5" x2="402.8301" y1="293.9219" y2="293.9219"/><text fill="#000000" font-family="sans-serif" font-size="14" lengthAdjust="spacing" textLength="181.3301" x="216.5" y="312.4551">Funzione totale, garantisce A</text></g><!--class Rules--><g class="entity" data-entity="Rules" data-source-line="23" data-uid="ent0005" id="entity_Rules"><rect fill="#F1F1F1" filter="url(#f1hlkpnxnwmvah)" height="83.2188" rx="2.5" ry="2.5" style="stroke:#181818;stroke-width:0.5;" width="431.7949" x="439" y="231.1094"/><ellipse cx="632.751" cy="247.1094" fill="#ADD1B2" rx="11" ry="11" style="stroke:#181818;stroke-width:1;"/><path d="M635.5166,242.9844 Q635.6729,242.7656 635.8604,242.6563 Q636.0479,242.5469 636.2666,242.5469 Q636.6416,242.5469 636.876,242.8125 Q637.1104,243.0625 637.1104,243.6719 L637.1104,245.125 Q637.1104,245.7344 636.876,246 Q636.6416,246.2656 636.2666,246.2656 Q635.9229,246.2656 635.7197,246.0625 Q635.5166,245.875 635.4072,245.3594 Q635.3604,245 635.1729,244.8125 Q634.8447,244.4375 634.2354,244.2188 Q633.626,244 633.001,244 Q632.2354,244 631.5947,244.3281 Q630.9697,244.6563 630.4697,245.4063 Q629.9854,246.1563 629.9854,247.1875 L629.9854,248.2813 Q629.9854,249.5156 630.876,250.3438 Q631.7666,251.1563 633.3604,251.1563 Q634.2979,251.1563 634.9541,250.9063 Q635.3447,250.75 635.7666,250.3125 Q636.0322,250.0469 636.1729,249.9688 Q636.3291,249.8906 636.5322,249.8906 Q636.8604,249.8906 637.1104,250.1563 Q637.376,250.4063 637.376,250.75 Q637.376,251.0938 637.0322,251.5 Q636.5322,252.0781 635.7354,252.4063 Q634.6572,252.8594 633.3604,252.8594 Q631.8447,252.8594 630.6416,252.2344 Q629.6572,251.7344 628.9697,250.6719 Q628.2822,249.5938 628.2822,248.3125 L628.2822,247.1563 Q628.2822,245.8281 628.8916,244.6875 Q629.5166,243.5313 630.6104,242.9219 Q631.7041,242.2969 632.9385,242.2969 Q633.6729,242.2969 634.3135,242.4688 Q634.9697,242.625 635.5166,242.9844 Z " fill="#000000"/><text fill="#000000" font-family="sans-serif" font-size="14" lengthAdjust="spacing" textLength="35.793" x="653.251" y="252.8379">Rules</text><line style="stroke:#181818;stroke-width:0.5;" x1="440" x2="869.7949" y1="263.1094" y2="263.1094"/><text fill="#000000" font-family="sans-serif" font-size="14" lengthAdjust="spacing" textLength="329.5264" x="445" y="281.6426">+alwaysForward: Rule[F, SensorReadings, Action[F]]</text><line style="stroke:#181818;stroke-width:0.5;" x1="440" x2="869.7949" y1="288.7188" y2="288.7188"/><text fill="#000000" font-family="sans-serif" font-size="14" lengthAdjust="spacing" textLength="419.7949" x="445" y="307.252">+avoidObstacle(front, safeDist): Rule[F, SensorReadings, Action[F]]</text></g><!--class Policy--><g class="entity" data-entity="Policy" data-source-line="27" data-uid="ent0006" id="entity_Policy"><rect fill="#F1F1F1" filter="url(#f1hlkpnxnwmvah)" height="65.6094" rx="2.5" ry="2.5" style="stroke:#181818;stroke-width:0.5;" width="351.6436" x="274" y="81.6094"/><ellipse cx="426.8994" cy="97.6094" fill="#ADD1B2" rx="11" ry="11" style="stroke:#181818;stroke-width:1;"/><path d="M429.665,93.4844 Q429.8213,93.2656 430.0088,93.1563 Q430.1963,93.0469 430.415,93.0469 Q430.79,93.0469 431.0244,93.3125 Q431.2588,93.5625 431.2588,94.1719 L431.2588,95.625 Q431.2588,96.2344 431.0244,96.5 Q430.79,96.7656 430.415,96.7656 Q430.0713,96.7656 429.8682,96.5625 Q429.665,96.375 429.5557,95.8594 Q429.5088,95.5 429.3213,95.3125 Q428.9932,94.9375 428.3838,94.7188 Q427.7744,94.5 427.1494,94.5 Q426.3838,94.5 425.7432,94.8281 Q425.1182,95.1563 424.6182,95.9063 Q424.1338,96.6563 424.1338,97.6875 L424.1338,98.7813 Q424.1338,100.0156 425.0244,100.8438 Q425.915,101.6563 427.5088,101.6563 Q428.4463,101.6563 429.1025,101.4063 Q429.4932,101.25 429.915,100.8125 Q430.1807,100.5469 430.3213,100.4688 Q430.4775,100.3906 430.6807,100.3906 Q431.0088,100.3906 431.2588,100.6563 Q431.5244,100.9063 431.5244,101.25 Q431.5244,101.5938 431.1807,102 Q430.6807,102.5781 429.8838,102.9063 Q428.8057,103.3594 427.5088,103.3594 Q425.9932,103.3594 424.79,102.7344 Q423.8057,102.2344 423.1182,101.1719 Q422.4307,100.0938 422.4307,98.8125 L422.4307,97.6563 Q422.4307,96.3281 423.04,95.1875 Q423.665,94.0313 424.7588,93.4219 Q425.8525,92.7969 427.0869,92.7969 Q427.8213,92.7969 428.4619,92.9688 Q429.1182,93.125 429.665,93.4844 Z " fill="#000000"/><text fill="#000000" font-family="sans-serif" font-size="14" lengthAdjust="spacing" textLength="37.3447" x="447.3994" y="103.3379">Policy</text><line style="stroke:#181818;stroke-width:0.5;" x1="275" x2="624.6436" y1="113.6094" y2="113.6094"/><line style="stroke:#181818;stroke-width:0.5;" x1="275" x2="624.6436" y1="121.6094" y2="121.6094"/><text fill="#000000" font-family="sans-serif" font-size="14" lengthAdjust="spacing" textLength="339.6436" x="280" y="140.1426">+simple(front): Behavior[F, SensorReadings, Action[F]]</text></g><!--class BehaviorDsl--><g class="entity" data-entity="BehaviorDsl" data-source-line="31" data-uid="ent0007" id="entity_BehaviorDsl"><rect fill="#F1F1F1" filter="url(#f1hlkpnxnwmvah)" height="48" rx="2.5" ry="2.5" style="stroke:#181818;stroke-width:0.5;" width="107.4756" x="99.5" y="90.6094"/><ellipse cx="114.5" cy="106.6094" fill="#ADD1B2" rx="11" ry="11" style="stroke:#181818;stroke-width:1;"/><path d="M117.2656,102.4844 Q117.4219,102.2656 117.6094,102.1563 Q117.7969,102.0469 118.0156,102.0469 Q118.3906,102.0469 118.625,102.3125 Q118.8594,102.5625 118.8594,103.1719 L118.8594,104.625 Q118.8594,105.2344 118.625,105.5 Q118.3906,105.7656 118.0156,105.7656 Q117.6719,105.7656 117.4688,105.5625 Q117.2656,105.375 117.1563,104.8594 Q117.1094,104.5 116.9219,104.3125 Q116.5938,103.9375 115.9844,103.7188 Q115.375,103.5 114.75,103.5 Q113.9844,103.5 113.3438,103.8281 Q112.7188,104.1563 112.2188,104.9063 Q111.7344,105.6563 111.7344,106.6875 L111.7344,107.7813 Q111.7344,109.0156 112.625,109.8438 Q113.5156,110.6563 115.1094,110.6563 Q116.0469,110.6563 116.7031,110.4063 Q117.0938,110.25 117.5156,109.8125 Q117.7813,109.5469 117.9219,109.4688 Q118.0781,109.3906 118.2813,109.3906 Q118.6094,109.3906 118.8594,109.6563 Q119.125,109.9063 119.125,110.25 Q119.125,110.5938 118.7813,111 Q118.2813,111.5781 117.4844,111.9063 Q116.4063,112.3594 115.1094,112.3594 Q113.5938,112.3594 112.3906,111.7344 Q111.4063,111.2344 110.7188,110.1719 Q110.0313,109.0938 110.0313,107.8125 L110.0313,106.6563 Q110.0313,105.3281 110.6406,104.1875 Q111.2656,103.0313 112.3594,102.4219 Q113.4531,101.7969 114.6875,101.7969 Q115.4219,101.7969 116.0625,101.9688 Q116.7188,102.125 117.2656,102.4844 Z " fill="#000000"/><text fill="#000000" font-family="sans-serif" font-size="14" lengthAdjust="spacing" textLength="75.4756" x="128.5" y="112.3379">BehaviorDsl</text><line style="stroke:#181818;stroke-width:0.5;" x1="100.5" x2="205.9756" y1="122.6094" y2="122.6094"/><line style="stroke:#181818;stroke-width:0.5;" x1="100.5" x2="205.9756" y1="130.6094" y2="130.6094"/></g><!--link Rules to Rule--><g class="link" data-entity-1="Rules" data-entity-2="Rule" data-source-line="35" data-uid="lnk8" id="link_Rules_Rule"><path codeLine="35" d="M593.77,314.1094 C555.91,339.1594 512.2046,368.0697 472.8446,394.0997" fill="none" id="Rules-to-Rule" style="stroke:#666666;stroke-width:1;"/><polygon fill="#666666" points="467.84,397.4094,477.5533,395.7812,472.0105,394.6513,473.1404,389.1084,467.84,397.4094" style="stroke:#666666;stroke-width:1;"/><text fill="#000000" font-family="sans-serif" font-size="13" lengthAdjust="spacing" textLength="45.519" x="535" y="364.1045">fornisce</text></g><!--link BehaviorDsl to Rule--><g class="link" data-entity-1="BehaviorDsl" data-entity-2="Rule" data-source-line="36" data-uid="lnk9" id="link_BehaviorDsl_Rule"><path codeLine="36" d="M131.06,138.7194 C96.13,178.4194 35.72,260.9394 76,319.6094 C121.35,385.6694 201.3181,415.3649 272.9781,429.7949" fill="none" id="BehaviorDsl-to-Rule" style="stroke:#666666;stroke-width:1;stroke-dasharray:7,7;"/><polygon fill="#666666" points="278.86,430.9794,270.8267,425.2814,273.9584,429.9923,269.2475,433.124,278.86,430.9794" style="stroke:#666666;stroke-width:1;"/><text fill="#000000" font-family="sans-serif" font-size="13" lengthAdjust="spacing" textLength="115.6099" x="77" y="278.1045">costruisce/compone</text></g><!--link BehaviorDsl to Behavior--><g class="link" data-entity-1="BehaviorDsl" data-entity-2="Behavior" data-source-line="37" data-uid="lnk10" id="link_BehaviorDsl_Behavior"><path codeLine="37" d="M175.72,138.6294 C198.23,161.4294 229.1043,192.71 257.3543,221.32" fill="none" id="BehaviorDsl-to-Behavior" style="stroke:#666666;stroke-width:1;stroke-dasharray:7,7;"/><polygon fill="#666666" points="261.57,225.5894,258.0927,216.3748,258.0569,222.0315,252.4002,221.9957,261.57,225.5894" style="stroke:#666666;stroke-width:1;"/><text fill="#000000" font-family="sans-serif" font-size="13" lengthAdjust="spacing" textLength="114.1816" x="231" y="192.1045">chiude con default()</text></g><!--link Policy to Rules--><g class="link" data-entity-1="Policy" data-entity-2="Rules" data-source-line="38" data-uid="lnk11" id="link_Policy_Rules"><path codeLine="38" d="M492.48,147.9294 C524.14,172.0294 562.8352,201.476 596.8452,227.356" fill="none" id="Policy-to-Rules" style="stroke:#666666;stroke-width:1;"/><polygon fill="#666666" points="601.62,230.9894,596.8801,222.3561,597.641,227.9616,592.0356,228.7225,601.62,230.9894" style="stroke:#666666;stroke-width:1;"/><text fill="#000000" font-family="sans-serif" font-size="13" lengthAdjust="spacing" textLength="20.96" x="553" y="192.1045">usa</text></g><!--link Policy to Behavior--><g class="link" data-entity-1="Policy" data-entity-2="Behavior" data-source-line="39" data-uid="lnk12" id="link_Policy_Behavior"><path codeLine="39" d="M420.37,147.9294 C399.84,170.3294 376.2441,196.0662 353.3941,220.9962" fill="none" id="Policy-to-Behavior" style="stroke:#666666;stroke-width:1;"/><polygon fill="#666666" points="349.34,225.4194,358.3699,221.4874,352.7184,221.7334,352.4724,216.0819,349.34,225.4194" style="stroke:#666666;stroke-width:1;"/><text fill="#000000" font-family="sans-serif" font-size="13" lengthAdjust="spacing" textLength="58.519" x="392" y="192.1045">restituisce</text></g><!--SRC=[bLB1Rjf04BtlLupIGnCLQ2xbW28ajmWfwe48Zb4Emtemeooxrkuu2AhyL7-XFzR1DiIaaPBwijQ-cVVUl5bXSGJVQOrF72BSeNt4Wc32M4JS69CUsPUelr0sq49ssX392lh2KQSWhJ4FM_O5IApU17u4fngV4F4jTAOAB3ku7dphmDPXIfb8v6KbT6k3N_2UuBfJaiKOjYttS3WqfhKA5yjshWluPGn0GmRpIYUukP5TIUEn8Wh05_ZfY9FZ-saFRdimAuM3lyyU7cgutw-FEHN1eKOHzuoEUb1MVtw33nxA6F8gHe9C2vzVj4x9lgENdUbCAxzNUG89KkiKEgWNJlOeS3vDQbaRPdmAdC-MIT0wkbp5uAK72LSquIHNexhZ8BiWdqAS4-QQVb8FjfvvsixSahajxj8qn2t6_3zwdzkpCNaN7DlTcSl4c_9eJqqTW_eWkNaTy2GvezUVTKSE3-4ns3MZReHWmvutwDWqMVNxu-ODl7mZM8Ne3_cQ3Y4C1ftA4TYGz6aVghxQi2brGVzKd_OzEiXNEMcJXvnMM3cvl39j44SBgUEWIjY5Jqmj72a9Iwrkp5y0]--></g></svg>